<svg height='300px' width='300px'  fill="#000000" xmlns="http://www.w3.org/2000/svg" xmlns:xlink="http://www.w3.org/1999/xlink" version="1.1" x="0px" y="0px" viewBox="0 0 50 50" enable-background="new 0 0 50 50" xml:space="preserve"><g><path d="M30.473,26.115V8.528c0-1.714-0.67-3.326-1.883-4.542c-1.196-1.198-2.853-1.883-4.545-1.883   c-3.526,0-6.397,2.883-6.397,6.426v17.297c-3.558,2.129-5.735,5.948-5.735,10.148c0,6.575,5.35,11.924,11.923,11.924   c6.559,0,11.898-5.349,11.898-11.924C35.724,32.006,33.731,28.295,30.473,26.115z M23.832,45.229c-5.104,0-9.258-4.153-9.258-9.256   c0-3.473,1.917-6.602,5.006-8.171l0.729-0.37V8.528c0-2.071,1.675-3.759,3.729-3.759c0.988,0,1.96,0.401,2.664,1.104   c0.721,0.722,1.099,1.639,1.099,2.654v19.095l0.667,0.385c2.831,1.628,4.589,4.685,4.589,7.966   C33.057,41.078,28.921,45.229,23.832,45.229z"></path><path d="M25.326,30.939V14.696c0-0.737-0.596-1.334-1.333-1.334c-0.738,0-1.334,0.597-1.334,1.334v16.138   c-2.386,0.534-4.167,2.654-4.167,5.2c0,2.942,2.39,5.333,5.334,5.333s5.333-2.391,5.333-5.333   C29.159,33.61,27.538,31.592,25.326,30.939z"></path><path d="M38.696,12.31h-4.889c-0.735,0-1.335,0.597-1.335,1.333c0,0.735,0.6,1.334,1.335,1.334h4.889   c0.736,0,1.333-0.599,1.333-1.334C40.029,12.907,39.433,12.31,38.696,12.31z"></path><path d="M38.696,16.53h-4.889c-0.735,0-1.335,0.599-1.335,1.333c0,0.737,0.6,1.333,1.335,1.333h4.889   c0.736,0,1.333-0.596,1.333-1.333C40.029,17.129,39.433,16.53,38.696,16.53z"></path><path d="M38.696,20.752h-4.889c-0.735,0-1.335,0.599-1.335,1.333c0,0.737,0.6,1.334,1.335,1.334h4.889   c0.736,0,1.333-0.597,1.333-1.334C40.029,21.351,39.433,20.752,38.696,20.752z"></path></g></svg>