<?xml version="1.0" encoding="utf-8"?>
<!-- Generator: Adobe Illustrator 22.0.1, SVG Export Plug-In . SVG Version: 6.00 Build 0)  -->
<svg version="1.1" id="Layer_1" xmlns="http://www.w3.org/2000/svg" xmlns:xlink="http://www.w3.org/1999/xlink" x="0px" y="0px"
	 viewBox="0 0 100 100" style="enable-background:new 0 0 100 100;" xml:space="preserve">
<style type="text/css">
	.st0{fill:#0083FF;}
	.st1{fill:#BCBCBC;}
</style>
<g id="Layer_3">
</g>
<path class="st0" d="M43.6,77.5c-1.6,1.1-2.6,1.8-3.2,3.1c-1,2.3-0.3,6,2.1,7c2.6,1.1,5.3,0,6.6-2.4c0.9-1.6,1.3-3.4,0.7-5.2
	c-0.3-1-0.8-1.4-1-2.7c-0.2-1-0.1-1.8,0-2.4C47.6,75.4,45.7,76.1,43.6,77.5z"/>
<path class="st0" d="M63.3,77.5c-1.6,1.1-2.6,1.8-3.2,3.1c-1,2.3-0.3,6,2.1,7c2.6,1.1,5.3,0,6.6-2.4c0.9-1.6,1.3-3.4,0.7-5.2
	c-0.3-1-0.8-1.4-1-2.7c-0.2-1-0.1-1.8,0-2.4C67.3,75.4,65.4,76.1,63.3,77.5z"/>
<path class="st1" d="M93.2,50.7c0-8.4-6.1-15.3-14.1-16.6c0-0.4,0.1-0.9,0.1-1.3c0-7.7-6.2-13.9-13.9-13.9c-2.1,0-4.2,0.5-6,1.4
	c-3.4-5-9.2-8.4-15.8-8.4c-10,0-18.3,7.8-19,17.6c-9.9,0.7-17.7,9-17.7,19.1c0,10.6,8.6,19.1,19.1,19.1h50.4
	C85.6,67.5,93.2,60,93.2,50.7"/>
<path class="st0" d="M23.9,77.5c-1.6,1.1-2.6,1.8-3.2,3.1c-1,2.3-0.3,6,2.1,7c2.6,1.1,5.3,0,6.6-2.4c0.9-1.6,1.3-3.4,0.7-5.2
	c-0.3-1-0.8-1.4-1-2.7c-0.2-1-0.1-1.8,0-2.4C27.9,75.4,26,76.1,23.9,77.5z"/>
</svg>
