<?xml version="1.0" encoding="utf-8"?>
<!-- Generator: Adobe Illustrator 21.0.2, SVG Export Plug-In . SVG Version: 6.00 Build 0)  -->
<svg version="1.1" xmlns="http://www.w3.org/2000/svg" xmlns:xlink="http://www.w3.org/1999/xlink" x="0px" y="0px"
	 viewBox="0 0 100 100" style="enable-background:new 0 0 100 100;" xml:space="preserve">
<style type="text/css">
	.st0{fill:#FFD400;}
	.st1{fill:#FFFFFF;}
	.st2{fill:#E6E6E6;}
</style>
<g id="Layer_4">
</g>
<g id="Layer_3">
</g>
<g id="Ebene_3">
	<g>
		<g>
			<polygon class="st0" points="90.7,39.5 83.4,42.8 88.7,48.9 80.6,48.8 82.8,56.5 75.6,52.9 74.2,60.9 69.3,54.4 64.5,60.9 
				63,52.9 55.8,56.5 58,48.8 49.9,48.9 55.2,42.8 47.9,39.5 55.2,36.2 49.9,30.1 58,30.2 55.8,22.5 63,26.1 64.5,18.1 69.3,24.6 
				74.2,18.1 75.6,26.1 82.8,22.5 80.6,30.2 88.7,30.1 83.4,36.2 			"/>
			<ellipse class="st1" cx="69.5" cy="39.9" rx="13" ry="13.2"/>
			<ellipse class="st0" cx="69.5" cy="39.9" rx="12" ry="12.2"/>
		</g>
		<path class="st2" d="M79.2,48.4c0-0.4,0.1-0.9,0.1-1.3c0-7.7-6.2-13.9-13.9-13.9c-2.1,0-4.2,0.5-6,1.4c-3.4-5-9.2-8.4-15.8-8.4
			c-10,0-18.3,7.8-19,17.6c-9.9,0.7-17.7,9-17.7,19.1c0,10.6,8.6,19.1,19.1,19.1h50.6c9.3,0,16.9-7.6,16.9-16.9
			C93.3,56.6,87.2,49.7,79.2,48.4z"/>
	</g>
</g>
</svg>
