<?xml version="1.0" encoding="utf-8"?>
<!-- Generator: Adobe Illustrator 22.0.1, SVG Export Plug-In . SVG Version: 6.00 Build 0)  -->
<svg version="1.1" id="Layer_1" xmlns="http://www.w3.org/2000/svg" xmlns:xlink="http://www.w3.org/1999/xlink" x="0px" y="0px"
	 viewBox="0 0 100 100" style="enable-background:new 0 0 100 100;" xml:space="preserve">
<style type="text/css">
	.st0{fill:#FFD400;}
	.st1{fill:#FFFFFF;}
	.st2{fill:#BCBCBC;}
	.st3{fill:#0083FF;}
</style>
<g id="Mond">
</g>
<g id="Wolken">
</g>
<g id="Layer_3">
</g>
<g>
	<g>
		<polygon class="st0" points="91.1,29 83.8,32.3 89.1,38.4 81,38.3 83.2,46 76,42.4 74.6,50.4 69.7,43.9 64.9,50.4 63.3,42.4 
			56.1,46 58.3,38.3 50.2,38.4 55.5,32.3 48.2,29 55.5,25.7 50.2,19.6 58.3,19.7 56.1,12 63.3,15.6 64.9,7.6 69.7,14.1 74.6,7.6 
			76,15.6 83.2,12 81,19.7 89.1,19.6 83.8,25.7 		"/>
		<ellipse class="st1" cx="69.9" cy="29.4" rx="13" ry="13.2"/>
		<ellipse class="st0" cx="69.9" cy="29.4" rx="12" ry="12.2"/>
	</g>
	<path class="st2" d="M74.8,40.5c0-0.4,0.1-0.8,0.1-1.2c0-7-5.7-12.7-12.7-12.7c-2,0-3.8,0.4-5.5,1.2c-3.1-4.6-8.4-7.6-14.4-7.6
		c-9.1,0-16.6,7.1-17.3,16c-9,0.7-16.1,8.2-16.1,17.3c0,9.6,7.8,17.4,17.4,17.4h46c8.5,0,15.4-6.9,15.4-15.4
		C87.7,48,82.1,41.7,74.8,40.5z"/>
	<path class="st3" d="M40.9,81.9c-1.6,1.1-2.6,1.8-3.2,3.1c-1,2.3-0.3,6,2.1,7c2.6,1.1,5.3,0,6.6-2.4c0.9-1.6,1.3-3.4,0.7-5.2
		c-0.3-1-0.8-1.4-1-2.7c-0.2-1-0.1-1.8,0-2.4C44.9,79.7,42.9,80.5,40.9,81.9z"/>
	<path class="st3" d="M68.5,85c0.1,2,0.2,3.2-0.5,4.4c-1.2,2.2-4.5,3.9-6.8,2.6c-2.5-1.4-3.3-4.1-2.2-6.7c0.7-1.7,1.9-3.1,3.7-3.8
		c1-0.4,1.6-0.2,2.8-0.8c0.9-0.5,1.5-1,1.9-1.4C67.7,80.6,68.3,82.5,68.5,85z"/>
	<path class="st3" d="M20.1,81.9c-1.6,1.1-2.6,1.8-3.2,3.1c-1,2.3-0.3,6,2.1,7c2.6,1.1,5.3,0,6.6-2.4c0.9-1.6,1.3-3.4,0.7-5.2
		c-0.3-1-0.8-1.4-1-2.7c-0.2-1-0.1-1.8,0-2.4C24.1,79.7,22.1,80.5,20.1,81.9z"/>
</g>
</svg>
