<?xml version="1.0" encoding="utf-8"?>
<!-- Generator: Adobe Illustrator 21.0.2, SVG Export Plug-In . SVG Version: 6.00 Build 0)  -->
<svg version="1.1" xmlns="http://www.w3.org/2000/svg" xmlns:xlink="http://www.w3.org/1999/xlink" x="0px" y="0px"
	 viewBox="0 0 100 100" style="enable-background:new 0 0 100 100;" xml:space="preserve">
<style type="text/css">
	.st0{fill:#FFD400;}
	.st1{fill:#FFFFFF;}
</style>
<g id="Layer_3">
</g>
<g id="Wolke">
	<g>
		<polygon class="st0" points="91,50 77,56.3 87.2,68 71.6,67.8 75.9,82.6 62.1,75.7 59.4,91 50,78.5 40.8,91 37.9,75.7 24.1,82.6 
			28.4,67.8 12.8,68 23,56.3 9,50 23,43.7 12.8,32 28.4,32.2 24.1,17.4 37.9,24.3 40.8,9 50,21.5 59.4,9 62.1,24.3 75.9,17.4 
			71.6,32.2 87.2,32 77,43.7 		"/>
		<ellipse class="st1" cx="50.4" cy="50.8" rx="24.9" ry="25.3"/>
		<ellipse class="st0" cx="50.4" cy="50.8" rx="23" ry="23.4"/>
	</g>
</g>
</svg>
