<?xml version="1.0" encoding="utf-8"?>
<!-- Generator: Adobe Illustrator 21.0.2, SVG Export Plug-In . SVG Version: 6.00 Build 0)  -->
<svg version="1.1" xmlns="http://www.w3.org/2000/svg" xmlns:xlink="http://www.w3.org/1999/xlink" x="0px" y="0px"
	 viewBox="0 0 100 100" style="enable-background:new 0 0 100 100;" xml:space="preserve">
<style type="text/css">
	.st0{fill:#FFD400;}
	.st1{fill:#FFFFFF;}
	.st2{fill:#E6E6E6;}
</style>
<g id="Layer_3">
</g>
<g id="Wolke">
	<g>
		<g>
			<polygon class="st0" points="95.8,47.8 81.8,54.1 91.9,65.8 76.4,65.6 80.6,80.4 66.8,73.5 64.1,88.8 54.8,76.3 45.6,88.8 
				42.7,73.5 28.9,80.4 33.1,65.6 17.6,65.8 27.7,54.1 13.8,47.8 27.7,41.5 17.6,29.8 33.1,30 28.9,15.2 42.7,22.1 45.6,6.8 
				54.8,19.2 64.1,6.8 66.8,22.1 80.6,15.2 76.4,30 91.9,29.8 81.8,41.5 			"/>
			<ellipse class="st1" cx="55.1" cy="48.5" rx="24.9" ry="25.3"/>
			<ellipse class="st0" cx="55.1" cy="48.5" rx="23" ry="23.4"/>
		</g>
		<path class="st2" d="M52.8,70.6c0-0.3,0.1-0.6,0.1-0.9c0-5.2-4.2-9.3-9.3-9.3c-1.4,0-2.8,0.3-4,0.9c-2.3-3.4-6.2-5.6-10.6-5.6
			c-6.7,0-12.3,5.2-12.8,11.8C9.5,68,4.2,73.6,4.2,80.4c0,7.1,5.8,12.8,12.8,12.8h34c6.2,0,11.4-5.1,11.4-11.4
			C62.3,76.2,58.2,71.5,52.8,70.6z"/>
	</g>
</g>
</svg>
