<?xml version="1.0" encoding="utf-8"?>
<!-- Generator: Adobe Illustrator 21.0.2, SVG Export Plug-In . SVG Version: 6.00 Build 0)  -->
<svg version="1.1" id="Layer_1" xmlns="http://www.w3.org/2000/svg" xmlns:xlink="http://www.w3.org/1999/xlink" x="0px" y="0px"
	 viewBox="0 0 100 100" style="enable-background:new 0 0 100 100;" xml:space="preserve">
<style type="text/css">
	.st0{fill:#1C3660;}
	.st1{fill:#606060;}
	.st2{fill:#BCBCBC;}
</style>
<g id="Tropfen">
</g>
<path class="st0" d="M70,84.8c0.4,1.9,0.7,3.1,0.2,4.4c-0.9,2.4-3.8,4.5-6.3,3.7c-2.6-0.9-3.9-3.5-3.2-6.2c0.4-1.8,1.4-3.3,3-4.3
	c0.9-0.5,1.5-0.5,2.6-1.3c0.8-0.6,1.3-1.2,1.6-1.7C68.6,80.7,69.5,82.5,70,84.8z"/>
<path class="st0" d="M83.4,69.5c0.4,1.9,0.7,3.1,0.2,4.4c-0.9,2.4-3.8,4.5-6.3,3.7c-2.6-0.9-3.9-3.5-3.2-6.2c0.4-1.8,1.4-3.3,3-4.3
	c0.9-0.5,1.5-0.5,2.6-1.3c0.8-0.6,1.3-1.2,1.6-1.7C81.9,65.3,82.8,67.1,83.4,69.5z"/>
<path class="st0" d="M30.7,85.4c0.1,2,0.2,3.2-0.5,4.4c-1.2,2.2-4.5,3.9-6.8,2.6c-2.5-1.4-3.3-4.1-2.2-6.7c0.7-1.7,1.9-3.1,3.7-3.8
	c1-0.4,1.6-0.2,2.8-0.8c0.9-0.5,1.5-1,1.9-1.4C30,81,30.6,83,30.7,85.4z"/>
<path class="st0" d="M51,85.1c0.3,1.9,0.6,3.1,0,4.4c-1,2.3-4.1,4.4-6.5,3.4c-2.6-1.1-3.8-3.7-3-6.4c0.5-1.8,1.5-3.3,3.2-4.2
	c0.9-0.5,1.5-0.4,2.6-1.2c0.8-0.6,1.4-1.2,1.7-1.6C49.8,80.8,50.6,82.7,51,85.1z"/>
<path class="st0" d="M17.1,67c-1.6,1.1-2.6,1.8-3.2,3.1c-1,2.3-0.3,6,2.1,7c2.6,1.1,5.3,0,6.6-2.4c0.9-1.6,1.3-3.4,0.7-5.2
	c-0.3-1-0.8-1.4-1-2.7c-0.2-1-0.1-1.8,0-2.4C21,64.9,19.1,65.6,17.1,67z"/>
<path class="st0" d="M37.2,67c-1.6,1.1-2.6,1.8-3.2,3.1c-1,2.3-0.3,6,2.1,7c2.6,1.1,5.3,0,6.6-2.4c0.9-1.6,1.3-3.4,0.7-5.2
	c-0.3-1-0.8-1.4-1-2.7c-0.2-1-0.1-1.8,0-2.4C41.1,64.9,39.2,65.6,37.2,67z"/>
<path class="st0" d="M64.2,70.1c0.1,2,0.2,3.2-0.5,4.4c-1.2,2.2-4.5,3.9-6.8,2.6c-2.5-1.4-3.3-4.1-2.2-6.7c0.7-1.7,1.9-3.1,3.7-3.8
	c1-0.4,1.6-0.2,2.8-0.8c0.9-0.5,1.5-1,1.9-1.4C63.4,65.7,64.1,67.6,64.2,70.1z"/>
<path class="st1" d="M84.3,28.9c0-0.4,0.1-0.8,0.1-1.3c0-7.6-6.2-13.8-13.8-13.8c-2.2,0-4.1,0.4-5.9,1.3c-3.4-4.9-9.2-8.3-15.6-8.3
	c-10,0-18.1,7.6-18.9,17.4c-9.7,0.7-17.4,8.9-17.4,18.9c0,10.4,8.5,18.9,18.9,18.9h50.1c9.3,0,16.7-7.5,16.7-16.7
	C98.3,37.1,92.3,30.3,84.3,28.9z"/>
<path class="st2" d="M50.3,36.6c0-0.3,0-0.5,0-0.9c0-5.1-4.2-9.4-9.4-9.4c-1.4,0-2.8,0.4-4,0.9c-2.3-3.4-6.2-5.6-10.6-5.6
	c-6.7,0-12.2,5.2-12.8,11.8c-6.7,0.4-11.9,6-11.9,12.8c0.1,7.1,5.8,12.9,12.9,12.9h33.9c6.2,0,11.3-5,11.3-11.3
	C59.7,42.2,55.6,37.5,50.3,36.6z"/>
</svg>
