<?xml version="1.0" encoding="utf-8"?>
<!-- Generator: Adobe Illustrator 22.0.1, SVG Export Plug-In . SVG Version: 6.00 Build 0)  -->
<svg version="1.1" id="Layer_1" xmlns="http://www.w3.org/2000/svg" xmlns:xlink="http://www.w3.org/1999/xlink" x="0px" y="0px"
	 viewBox="0 0 100 100" style="enable-background:new 0 0 100 100;" xml:space="preserve">
<style type="text/css">
	.st0{fill:#F9BC26;}
	.st1{fill:#606060;}
	.st2{fill:#1C3660;}
</style>
<path class="st0" d="M84.2,10.9c-8.3-6.8-18.5-9.3-28.3-8c2.2,1.7,4.4,3.4,6.6,4.9c12.9,9.2,12.5,28,3.9,39.5
	c-4.2,5.6-12,9.5-19,10.2c-7.6,0.7-13-1.9-19.1-6.3c-0.5-0.3-0.5-0.3-1-0.7c2,6.8,4.2,12.5,10,17.3C53,80.6,76.2,78.4,89.1,62.7
	S99.9,23.8,84.2,10.9z"/>
<g id="Layer_3">
</g>
<path class="st1" d="M51,62.5c0-0.3,0.1-0.6,0.1-0.9c0-5.2-4.2-9.4-9.4-9.4c-1.5,0-2.8,0.3-4.1,0.9c-2.3-3.4-6.2-5.6-10.5-5.6
	c-6.7,0-12.2,5.2-12.7,11.8C7.7,59.8,2.5,65.3,2.5,72c0,7.1,5.7,12.8,12.8,12.8h33.9c6.3,0,11.3-5.1,11.3-11.3
	C60.5,68,56.4,63.3,51,62.5z"/>
<path class="st2" d="M25.9,89.7C24.7,90.5,24,91,23.5,92c-0.7,1.7-0.2,4.4,1.5,5.2c1.9,0.8,3.9,0,4.9-1.8c0.7-1.2,1-2.5,0.5-3.8
	c-0.2-0.7-0.6-1-0.7-2c-0.1-0.7-0.1-1.3,0-1.8C28.9,88,27.4,88.6,25.9,89.7z"/>
</svg>
