<?xml version="1.0" encoding="utf-8"?>
<!-- Generator: Adobe Illustrator 21.0.2, SVG Export Plug-In . SVG Version: 6.00 Build 0)  -->
<svg version="1.1" id="Layer_1" xmlns="http://www.w3.org/2000/svg" xmlns:xlink="http://www.w3.org/1999/xlink" x="0px" y="0px"
	 viewBox="0 0 100 100" style="enable-background:new 0 0 100 100;" xml:space="preserve">
<style type="text/css">
	.st0{fill:#BCBCBC;}
	.st1{fill:#E6E6E6;}
</style>
<g id="Ebene_2">
</g>
<g id="Ebene_3">
</g>
<g id="Ebene_4">
</g>
<g>
	<path class="st0" d="M82.1,37.5c0-0.5,0.1-0.9,0.1-1.4c0-8.5-6.9-15.4-15.4-15.4c-2.4,0-4.6,0.5-6.6,1.5C56.4,16.7,50,13,42.8,13
		c-11.1,0-20.1,8.5-21,19.4C11,33.2,2.4,42.3,2.4,53.4c0,11.6,9.4,21,21,21h55.7c10.3,0,18.6-8.3,18.6-18.6
		C97.6,46.6,90.9,39,82.1,37.5z"/>
	<path class="st1" d="M84.8,62c0-0.3,0-0.6,0-1c0-5.7-4.7-10.4-10.4-10.4c-1.6,0-3.1,0.4-4.5,1c-2.6-3.8-6.9-6.2-11.8-6.2
		c-7.5,0-13.6,5.8-14.2,13.1c-7.4,0.5-13.2,6.7-13.2,14.2C30.8,80.6,37.2,87,45,87h37.7c6.9,0,12.6-5.6,12.6-12.6
		C95.3,68.2,90.7,63,84.8,62z"/>
</g>
</svg>
