<?xml version="1.0" encoding="utf-8"?>
<!-- Generator: Adobe Illustrator 22.0.1, SVG Export Plug-In . SVG Version: 6.00 Build 0)  -->
<svg version="1.1" id="Layer_1" xmlns="http://www.w3.org/2000/svg" xmlns:xlink="http://www.w3.org/1999/xlink" x="0px" y="0px"
	 viewBox="0 0 100 100" style="enable-background:new 0 0 100 100;" xml:space="preserve">
<style type="text/css">
	.st0{fill:#E5BA03;}
	.st1{fill:#606060;}
	.st2{fill:#1C3660;}
</style>
<g id="Mond">
</g>
<g id="Wolken">
</g>
<g id="Layer_3">
</g>
<g>
	<path class="st0" d="M83.8,12.8c-4.9-4-10.9-5.5-16.7-4.7c1.3,1,2.6,2,3.9,2.9c7.6,5.4,7.4,16.5,2.3,23.3c-2.5,3.3-7.1,5.6-11.2,6
		c-4.5,0.4-7.7-1.1-11.3-3.7c-0.3-0.2-0.3-0.2-0.6-0.4c1.2,4,2.5,7.4,5.9,10.2c9.3,7.6,23,6.3,30.6-3S93.1,20.5,83.8,12.8z"/>
	<path class="st1" d="M74.3,40.1c0-0.4,0.1-0.8,0.1-1.2c0-7-5.7-12.7-12.7-12.7c-2,0-3.8,0.4-5.5,1.2c-3.1-4.6-8.4-7.6-14.4-7.6
		c-9.1,0-16.6,7.1-17.3,16c-9,0.7-16.1,8.2-16.1,17.3c0,9.6,7.8,17.4,17.4,17.4h46c8.5,0,15.4-6.9,15.4-15.4
		C87.2,47.6,81.6,41.3,74.3,40.1z"/>
	<path class="st2" d="M40.4,81.5c-1.6,1.1-2.6,1.8-3.2,3.1c-1,2.3-0.3,6,2.1,7c2.6,1.1,5.3,0,6.6-2.4c0.9-1.6,1.3-3.4,0.7-5.2
		c-0.3-1-0.8-1.4-1-2.7c-0.2-1-0.1-1.8,0-2.4C44.4,79.3,42.4,80.1,40.4,81.5z"/>
	<path class="st2" d="M68,84.6c0.1,2,0.2,3.2-0.5,4.4c-1.2,2.2-4.5,3.9-6.8,2.6c-2.5-1.4-3.3-4.1-2.2-6.7c0.7-1.7,1.9-3.1,3.7-3.8
		c1-0.4,1.6-0.2,2.8-0.8c0.9-0.5,1.5-1,1.9-1.4C67.2,80.2,67.8,82.1,68,84.6z"/>
	<path class="st2" d="M19.6,81.5c-1.6,1.1-2.6,1.8-3.2,3.1c-1,2.3-0.3,6,2.1,7c2.6,1.1,5.3,0,6.6-2.4c0.9-1.6,1.3-3.4,0.7-5.2
		c-0.3-1-0.8-1.4-1-2.7c-0.2-1-0.1-1.8,0-2.4C23.6,79.3,21.6,80.1,19.6,81.5z"/>
</g>
</svg>
