<?xml version="1.0" encoding="utf-8"?>
<!-- Generator: Adobe Illustrator 22.0.1, SVG Export Plug-In . SVG Version: 6.00 Build 0)  -->
<svg version="1.1" id="Layer_1" xmlns="http://www.w3.org/2000/svg" xmlns:xlink="http://www.w3.org/1999/xlink" x="0px" y="0px"
	 viewBox="0 0 100 100" style="enable-background:new 0 0 100 100;" xml:space="preserve">
<style type="text/css">
	.st0{fill:#FFD400;}
	.st1{fill:#FFFFFF;}
	.st2{fill:#BCBCBC;}
	.st3{fill:#0083FF;}
</style>
<g id="Wolke">
	<g>
		<g>
			<polygon class="st0" points="98.3,42.5 84.7,48.6 94.5,59.9 79.5,59.7 83.6,74.1 70.2,67.4 67.5,82.3 58.5,70.1 49.6,82.3 
				46.8,67.4 33.4,74.1 37.5,59.7 22.4,59.9 32.2,48.6 18.7,42.5 32.2,36.4 22.4,25 37.5,25.2 33.4,10.8 46.8,17.5 49.6,2.7 
				58.5,14.7 67.5,2.7 70.2,17.5 83.6,10.8 79.5,25.2 94.5,25 84.7,36.4 			"/>
			<ellipse class="st1" cx="58.8" cy="43.2" rx="24.2" ry="24.6"/>
			<ellipse class="st0" cx="58.8" cy="43.2" rx="22.3" ry="22.7"/>
		</g>
	</g>
</g>
<g id="Layer_3">
</g>
<path class="st2" d="M50.2,62.3c0-0.3,0.1-0.6,0.1-0.9c0-5.2-4.2-9.4-9.4-9.4c-1.5,0-2.8,0.3-4.1,0.9c-2.3-3.4-6.2-5.6-10.5-5.6
	c-6.7,0-12.2,5.2-12.7,11.8C7,59.6,1.7,65.1,1.7,71.8c0,7.1,5.7,12.8,12.8,12.8h33.9c6.3,0,11.3-5.1,11.3-11.3
	C59.7,67.8,55.6,63.2,50.2,62.3z"/>
<path class="st3" d="M25.1,89.5c-1.2,0.8-1.9,1.3-2.4,2.3c-0.7,1.7-0.2,4.4,1.5,5.2c1.9,0.8,3.9,0,4.9-1.8c0.7-1.2,1-2.5,0.5-3.8
	c-0.2-0.7-0.6-1-0.7-2c-0.1-0.7-0.1-1.3,0-1.8C28.1,87.9,26.6,88.5,25.1,89.5z"/>
</svg>
