<?xml version="1.0" encoding="utf-8"?>
<!-- Generator: Adobe Illustrator 21.0.2, SVG Export Plug-In . SVG Version: 6.00 Build 0)  -->
<svg version="1.1" id="Layer_1" xmlns="http://www.w3.org/2000/svg" xmlns:xlink="http://www.w3.org/1999/xlink" x="0px" y="0px"
	 viewBox="0 0 100 100" style="enable-background:new 0 0 100 100;" xml:space="preserve">
<style type="text/css">
	.st0{fill:#F9BC26;}
	.st1{fill:#606060;}
</style>
<g id="Layer_3">
</g>
<g id="Wolke">
	<g>
		<path class="st0" d="M76.9,16.9c-9.2-7.6-20.7-10.4-31.7-9c2.5,1.9,4.9,3.7,7.5,5.5C67,23.6,66.6,44.8,57,57.6
			c-4.7,6.3-13.5,10.6-21.2,11.3c-8.6,0.8-14.5-2.1-21.4-7c-0.5-0.4-0.6-0.3-1.1-0.7c2.3,7.5,4.7,14,11.2,19.4
			C42.1,95,68,92.5,82.5,74.9S94.5,31.3,76.9,16.9z"/>
		<path class="st1" d="M56.6,69.9c0-0.3,0.1-0.6,0.1-0.9c0-5.2-4.2-9.3-9.3-9.3c-1.4,0-2.8,0.3-4,0.9C41,57.2,37.2,55,32.7,55
			c-6.7,0-12.3,5.2-12.8,11.8C13.2,67.3,8,72.8,8,79.6c0,7.1,5.8,12.8,12.8,12.8h34c6.2,0,11.4-5.1,11.4-11.4
			C66.1,75.4,62,70.8,56.6,69.9z"/>
	</g>
</g>
</svg>
